<svg width="197" height="66" viewBox="0 0 197 66" fill="none" xmlns="http://www.w3.org/2000/svg">
<path d="M15.1231 4.55397V44.13C15.1231 44.8205 15.1963 45.3226 15.3428 45.6365C15.4892 45.9294 15.7299 46.1386 16.0646 46.2642L17.0689 46.578C17.4665 46.7454 17.7489 46.9442 17.9163 47.1743C18.1046 47.4045 18.1988 47.6869 18.1988 48.0217C18.1988 48.4611 18.0523 48.8063 17.7594 49.0574C17.4874 49.3085 17.0271 49.434 16.3785 49.434H2.97723C2.34954 49.434 1.88923 49.3085 1.59631 49.0574C1.30339 48.8063 1.15692 48.4611 1.15692 48.0217C1.15692 47.7079 1.24062 47.4359 1.408 47.2057C1.59631 46.9546 1.88923 46.7454 2.28677 46.578L3.32246 46.2642C3.65723 46.1386 3.89785 45.9294 4.04431 45.6365C4.19077 45.3226 4.264 44.8309 4.264 44.1614V10.3601C4.264 9.83705 4.18031 9.46044 4.01293 9.23029C3.86647 8.97921 3.62585 8.82228 3.29108 8.75952L2.06708 8.60259C1.69046 8.49797 1.41846 8.35151 1.25108 8.16321C1.08369 7.95398 1 7.68197 1 7.3472C1 6.97059 1.10462 6.67766 1.31385 6.46843C1.544 6.23828 1.94154 6.00813 2.50646 5.77797L9.47386 3.29859C10.3317 2.98474 11.0117 2.76505 11.5139 2.63951C12.016 2.49305 12.4659 2.41982 12.8634 2.41982C13.6166 2.41982 14.1816 2.61858 14.5582 3.01612C14.9348 3.41366 15.1231 3.92628 15.1231 4.55397Z" fill="#2C2C2A"/>
<path d="M35.5652 21.1251V44.13C35.5652 44.8205 35.6385 45.3226 35.7849 45.6365C35.9314 45.9294 36.172 46.1386 36.5068 46.2642L37.5111 46.578C37.9086 46.7454 38.1911 46.9442 38.3585 47.1743C38.5468 47.4045 38.6409 47.6869 38.6409 48.0217C38.6409 48.4611 38.4945 48.8063 38.2015 49.0574C37.9295 49.3085 37.4692 49.434 36.8206 49.434H23.388C22.7603 49.434 22.3 49.3085 22.0071 49.0574C21.7351 48.8063 21.5991 48.4611 21.5991 48.0217C21.5991 47.7079 21.6828 47.4359 21.8501 47.2057C22.0384 46.9546 22.3314 46.7454 22.7289 46.578L23.7646 46.2642C24.0994 46.1386 24.34 45.9294 24.4864 45.6365C24.6329 45.3226 24.7061 44.8309 24.7061 44.1614V26.9312C24.7061 26.4081 24.6224 26.0315 24.4551 25.8014C24.3086 25.5503 24.068 25.3934 23.7332 25.3306L22.5092 25.1737C22.1326 25.0691 21.8606 24.9121 21.6932 24.7029C21.5258 24.4937 21.4421 24.2321 21.4421 23.9183C21.4421 23.5417 21.5468 23.2488 21.756 23.0395C21.9861 22.8094 22.3837 22.5792 22.9486 22.3491L29.8846 19.8697C30.7634 19.5349 31.4538 19.3048 31.956 19.1792C32.4582 19.0537 32.908 18.9909 33.3055 18.9909C34.0588 18.9909 34.6237 19.1897 35.0003 19.5872C35.3769 19.9848 35.5652 20.4974 35.5652 21.1251Z" fill="#2C2C2A"/>
<path d="M55.8848 21.1251V44.13C55.8848 44.8205 55.958 45.3226 56.1045 45.6365C56.2719 45.9294 56.523 46.1386 56.8577 46.2642L57.7993 46.6094C58.427 46.9023 58.7408 47.3417 58.7408 47.9276C58.7408 48.9319 58.1236 49.434 56.8891 49.434H43.7389C43.1112 49.434 42.6509 49.3085 42.358 49.0574C42.0651 48.8063 41.9186 48.4611 41.9186 48.0217C41.9186 47.7079 42.0023 47.4359 42.1697 47.2057C42.358 46.9546 42.6509 46.7454 43.0485 46.578L44.0842 46.2642C44.4189 46.1386 44.6596 45.9294 44.806 45.6365C44.9734 45.3226 45.0571 44.8309 45.0571 44.1614V26.9312C45.0571 26.4081 44.9734 26.0315 44.806 25.8014C44.6596 25.5503 44.4189 25.3934 44.0842 25.3306L42.8288 25.1737C42.4731 25.0691 42.2116 24.9121 42.0442 24.7029C41.8768 24.4937 41.7931 24.2321 41.7931 23.9183C41.7931 23.5417 41.8977 23.2488 42.1069 23.0395C42.3162 22.8094 42.7137 22.5792 43.2996 22.3491L50.2356 19.8697C51.0725 19.5558 51.742 19.3361 52.2442 19.2106C52.7673 19.0641 53.259 18.9909 53.7193 18.9909C54.4306 18.9909 54.9642 19.1897 55.3199 19.5872C55.6965 19.9848 55.8848 20.4974 55.8848 21.1251Z" fill="#2C2C2A"/>
<path d="M54.8807 28.3749L53.4056 26.8057L54.5041 25.8014C57.2032 23.3325 59.5152 21.5749 61.4401 20.5288C63.386 19.4617 65.2063 18.9281 66.901 18.9281C69.4537 18.9281 71.4414 19.786 72.8641 21.5017C74.2869 23.1965 75.1447 25.4666 75.4377 28.3122L77.101 44.0986C77.1638 44.81 77.258 45.3226 77.3835 45.6365C77.509 45.9503 77.7497 46.17 78.1054 46.2956L79.0469 46.578C79.4444 46.7454 79.7269 46.9546 79.8943 47.2057C80.0826 47.4359 80.1767 47.7079 80.1767 48.0217C80.1767 48.4611 80.0303 48.8063 79.7374 49.0574C79.4654 49.3085 79.0155 49.434 78.3878 49.434H65.0807C63.8463 49.434 63.229 48.9319 63.229 47.9276C63.229 47.3417 63.5324 46.9023 64.1392 46.6094L65.1435 46.2642C65.4992 46.1386 65.7607 45.9189 65.9281 45.6051C66.1164 45.2913 66.1792 44.7891 66.1164 44.0986L64.6413 29.8186C64.474 28.2703 64.0869 27.1091 63.4801 26.3349C62.8943 25.5608 61.9946 25.1737 60.781 25.1737C60.0487 25.1737 59.2746 25.362 58.4586 25.7386C57.6635 26.1152 56.8684 26.6488 56.0733 27.3392L54.8807 28.3749Z" fill="#2C2C2A"/>
<path d="M103.463 45.8562C106.706 46.2537 109.29 46.8082 111.215 47.5196C113.161 48.2309 114.552 49.1516 115.389 50.2814C116.247 51.4113 116.676 52.8236 116.676 54.5183C116.676 57.5313 115.054 60.0002 111.811 61.9251C108.568 63.85 103.861 64.8125 97.6883 64.8125C93.7338 64.8125 90.6058 64.53 88.3043 63.9651C86.0028 63.4002 84.3708 62.6051 83.4083 61.5799C82.4458 60.5756 81.9646 59.4143 81.9646 58.0962C81.9646 56.506 82.7178 55.1356 84.2243 53.9848C85.7308 52.834 88.4612 52.039 92.4157 51.5996L92.7295 52.4783C91.8717 52.6876 91.2126 53.0851 90.7523 53.671C90.292 54.2568 90.0618 54.895 90.0618 55.5854C90.0618 57.4266 90.7523 58.8913 92.1332 59.9793C93.5351 61.0882 95.9517 61.6426 99.3831 61.6426C101.35 61.6426 102.898 61.4962 104.028 61.2033C105.179 60.9103 106.005 60.4814 106.507 59.9165C107.03 59.3516 107.292 58.6611 107.292 57.8451C107.292 57.1337 106.999 56.527 106.413 56.0248C105.827 55.5436 104.813 55.1146 103.369 54.738C101.946 54.3823 99.9585 54.0266 97.4058 53.671C94.3301 53.2316 91.9658 52.7399 90.3129 52.1959C88.66 51.6728 87.5197 51.0346 86.892 50.2814C86.2643 49.5282 85.9504 48.6076 85.9504 47.5196C85.9504 46.4734 86.2329 45.5214 86.7978 44.6636C87.3837 43.8057 88.3671 43.0839 89.748 42.498C91.1289 41.9122 93.0329 41.546 95.46 41.3996L95.8994 41.9017C95.4182 42.09 95.0625 42.3097 94.8323 42.5608C94.6231 42.7909 94.5185 43.042 94.5185 43.314C94.5185 43.586 94.6754 43.858 94.9892 44.13C95.324 44.3811 96.1191 44.6426 97.3745 44.9146C98.6298 45.1866 100.659 45.5005 103.463 45.8562Z" fill="#2C2C2A"/>
<path d="M103.526 21.9725L104.53 19.7441C105.576 17.2961 106.884 15.4654 108.453 14.2518C110.022 13.0174 111.717 12.4001 113.537 12.4001C115.023 12.4001 116.215 12.8186 117.115 13.6555C118.036 14.4924 118.496 15.6641 118.496 17.1706C118.496 18.5097 118.161 19.5872 117.492 20.4032C116.822 21.1983 115.922 21.5958 114.793 21.5958C114.018 21.5958 113.412 21.4285 112.972 21.0937C112.554 20.7589 112.188 20.3718 111.874 19.9325C111.581 19.4721 111.236 19.0746 110.838 18.7398C110.462 18.4051 109.938 18.2377 109.269 18.2377C108.558 18.2377 107.951 18.5097 107.449 19.0537C106.967 19.5977 106.392 20.6334 105.722 22.1608L103.526 21.9725Z" fill="#2C2C2A"/>
<path d="M99.1001 19.0538C102.28 19.0538 104.99 19.545 107.229 20.5284C109.468 21.5117 111.174 22.8512 112.345 24.5459C113.538 26.2197 114.133 28.1031 114.133 30.1954C114.133 32.6014 113.475 34.7253 112.157 36.5664C110.839 38.4077 108.976 39.841 106.57 40.8663C104.185 41.8914 101.35 42.4043 98.0649 42.4043C94.9056 42.4043 92.1854 41.9121 89.9048 40.9288C87.6452 39.9454 85.9187 38.6171 84.7261 36.9434C83.5335 35.2487 82.9371 33.3653 82.937 31.294C82.937 28.867 83.5862 26.7328 84.8833 24.8916C86.2015 23.0504 88.0744 21.6171 90.5015 20.5918C92.9284 19.5667 95.7945 19.0538 99.1001 19.0538ZM100.67 23.793C99.7079 22.3702 98.5357 21.7418 97.1548 21.9092C96.2552 21.9929 95.544 22.3912 95.021 23.1026C94.498 23.814 94.1626 24.8284 94.0161 26.1465C93.8906 27.4437 93.9752 29.0547 94.2681 30.9795C94.561 32.9045 94.9583 34.5163 95.4604 35.8135C95.9835 37.0896 96.611 38.031 97.3433 38.6377C98.0965 39.2236 98.9334 39.4744 99.854 39.3907C101.214 39.2233 102.145 38.3864 102.647 36.8799C103.149 35.3525 103.181 33.1555 102.742 30.2891C102.323 27.3811 101.633 25.2157 100.67 23.793Z" fill="#2C2C2A"/>
<path d="M149.185 31.0112C149.185 32.1411 148.861 33.0198 148.212 33.6475C147.584 34.2752 146.674 34.5891 145.482 34.5891H126.306V32.0469H136.914C137.918 32.0469 138.42 31.5762 138.42 30.6346C138.42 27.7682 138.012 25.6654 137.196 24.3263C136.38 22.9663 135.313 22.2863 133.995 22.2863C132.991 22.2863 132.101 22.6211 131.327 23.2906C130.553 23.9601 129.936 24.9645 129.475 26.3035C129.036 27.6426 128.816 29.306 128.816 31.2937C128.816 35.2691 129.716 38.2192 131.515 40.1442C133.315 42.0691 135.742 43.0316 138.797 43.0316C140.491 43.0316 141.977 42.7282 143.253 42.1214C144.551 41.4937 145.607 40.5417 146.423 39.2654C146.863 38.8469 147.197 38.5645 147.427 38.418C147.658 38.2715 147.898 38.1983 148.149 38.1983C148.463 38.1983 148.693 38.3552 148.84 38.6691C149.007 38.9829 149.091 39.37 149.091 39.8303C149.049 41.6925 148.421 43.4186 147.208 45.0088C146.015 46.5989 144.373 47.8648 142.28 48.8063C140.188 49.7479 137.771 50.2186 135.031 50.2186C131.955 50.2186 129.214 49.6014 126.808 48.3669C124.423 47.1325 122.539 45.3959 121.159 43.1571C119.778 40.8974 119.087 38.2715 119.087 35.2795C119.087 32.0155 119.736 29.1595 121.033 26.7115C122.33 24.2635 124.203 22.3595 126.651 20.9995C129.099 19.6186 132.028 18.9281 135.439 18.9281C138.389 18.9281 140.889 19.4512 142.939 20.4974C144.99 21.5226 146.538 22.9454 147.584 24.7657C148.651 26.586 149.185 28.6678 149.185 31.0112Z" fill="#2C2C2A"/>
<path d="M165.829 32.6119C165.829 29.5571 166.247 27.0149 167.084 24.9854C167.942 22.9558 169.061 21.4389 170.442 20.4346C171.823 19.4303 173.309 18.9281 174.899 18.9281C176.949 18.9281 178.518 19.5349 179.606 20.7485C180.715 21.9411 181.27 23.7195 181.27 26.0838C181.27 28.3226 180.799 29.986 179.858 31.074C178.937 32.162 177.734 32.706 176.248 32.706C174.784 32.706 173.675 32.3189 172.922 31.5448C172.168 30.7706 171.792 29.6826 171.792 28.2808V27.0882C171.771 26.4814 171.635 26.0315 171.384 25.7386C171.133 25.4248 170.725 25.2678 170.16 25.2678C169.595 25.2678 169.061 25.5189 168.559 26.0211C168.078 26.5023 167.68 27.266 167.366 28.3122C167.074 29.3583 166.927 30.7079 166.927 32.3608L165.829 32.6119Z" fill="#2C2C2A"/>
<path d="M166.3 21.1565L166.927 28.4377V44.0986C166.927 44.7054 167.032 45.1552 167.241 45.4482C167.45 45.7202 167.869 45.9189 168.497 46.0445L171.101 46.5153C171.604 46.5989 171.97 46.7663 172.2 47.0174C172.451 47.2476 172.577 47.5719 172.577 47.9903C172.577 48.4506 172.42 48.8063 172.106 49.0574C171.792 49.3085 171.332 49.434 170.725 49.434H154.781C154.133 49.434 153.662 49.3085 153.369 49.0574C153.097 48.8063 152.961 48.4611 152.961 48.0217C152.961 47.7079 153.045 47.4359 153.212 47.2057C153.401 46.9546 153.693 46.7454 154.091 46.578L155.095 46.2642C155.451 46.1386 155.702 45.9294 155.849 45.6365C155.995 45.3436 156.068 44.8519 156.068 44.1614V26.994C156.068 26.4709 155.985 26.0943 155.817 25.8641C155.671 25.6131 155.43 25.4457 155.095 25.362L153.84 25.2365C153.484 25.1318 153.223 24.9749 153.055 24.7657C152.888 24.5565 152.804 24.2949 152.804 23.9811C152.804 23.6045 152.909 23.3011 153.118 23.0709C153.348 22.8408 153.746 22.6211 154.311 22.4118L161.121 20.0266C162.23 19.6081 163.036 19.3361 163.538 19.2106C164.04 19.0851 164.437 19.0223 164.73 19.0223C165.191 19.0223 165.546 19.1897 165.797 19.5244C166.049 19.8592 166.216 20.4032 166.3 21.1565Z" fill="#2C2C2A"/>
<path d="M189.468 50C188.273 50 187.173 49.7076 186.17 49.1229C185.188 48.5173 184.409 47.7133 183.833 46.7108C183.278 45.7084 183 44.6329 183 43.4843C183 42.2731 183.278 41.1871 183.833 40.2265C184.409 39.245 185.188 38.4618 186.17 37.8771C187.173 37.2924 188.273 37 189.468 37C190.706 37 191.816 37.2924 192.798 37.8771C193.78 38.4618 194.559 39.245 195.135 40.2265C195.712 41.1871 196 42.2731 196 43.4843C196 44.6329 195.712 45.7084 195.135 46.7108C194.559 47.7133 193.78 48.5173 192.798 49.1229C191.816 49.7076 190.706 50 189.468 50Z" fill="#E24B4A"/>
<path d="M30.468 15C29.2726 15 28.1732 14.7076 27.1699 14.1229C26.188 13.5173 25.4089 12.7133 24.8325 11.7108C24.2775 10.7084 24 9.63293 24 8.48434C24 7.27309 24.2775 6.18715 24.8325 5.22651C25.4089 4.24498 26.188 3.46185 27.1699 2.87711C28.1732 2.29237 29.2726 2 30.468 2C31.7061 2 32.8161 2.29237 33.798 2.87711C34.78 3.46185 35.5591 4.24498 36.1355 5.22651C36.7118 6.18715 37 7.27309 37 8.48434C37 9.63293 36.7118 10.7084 36.1355 11.7108C35.5591 12.7133 34.78 13.5173 33.798 14.1229C32.8161 14.7076 31.7061 15 30.468 15Z" fill="#8A9E8C"/>
</svg>
