<svg width="17" height="34" viewBox="0 0 17 34" fill="none" xmlns="http://www.w3.org/2000/svg">
<path d="M8.46798 32C7.27258 32 6.17323 31.7076 5.16995 31.1229C4.18801 30.5173 3.40887 29.7133 2.83252 28.7108C2.27751 27.7084 2 26.6329 2 25.4843C2 24.2731 2.27751 23.1871 2.83252 22.2265C3.40887 21.245 4.18801 20.4618 5.16995 19.8771C6.17323 19.2924 7.27258 19 8.46798 19C9.70608 19 10.8161 19.2924 11.798 19.8771C12.78 20.4618 13.5591 21.245 14.1355 22.2265C14.7118 23.1871 15 24.2731 15 25.4843C15 26.6329 14.7118 27.7084 14.1355 28.7108C13.5591 29.7133 12.78 30.5173 11.798 31.1229C10.8161 31.7076 9.70608 32 8.46798 32Z" fill="#E24B4A"/>
<path d="M8.46798 15C7.27258 15 6.17323 14.7076 5.16995 14.1229C4.18801 13.5173 3.40887 12.7133 2.83252 11.7108C2.27751 10.7084 2 9.63293 2 8.48434C2 7.27309 2.27751 6.18715 2.83252 5.22651C3.40887 4.24498 4.18801 3.46185 5.16995 2.87711C6.17323 2.29237 7.27258 2 8.46798 2C9.70608 2 10.8161 2.29237 11.798 2.87711C12.78 3.46185 13.5591 4.24498 14.1355 5.22651C14.7118 6.18715 15 7.27309 15 8.48434C15 9.63293 14.7118 10.7084 14.1355 11.7108C13.5591 12.7133 12.78 13.5173 11.798 14.1229C10.8161 14.7076 9.70608 15 8.46798 15Z" fill="#8A9E8C"/>
</svg>
